<svg xmlns="http://www.w3.org/2000/svg" xmlns:xlink="http://www.w3.org/1999/xlink" width="42" height="26"><defs><path id="prefix__a" d="M0 0.025L3.939 0.025 3.939 9.695 0 9.695z"/><path id="prefix__c" d="M0.01 0.021L5.117 0.021 5.117 3.536 0.01 3.536z"/></defs><g fill="none" fill-rule="evenodd" transform="translate(1 1)"><rect width="40" height="24" fill="#FFF" stroke="#000" stroke-opacity=".119" rx="2"/><g><path fill="#FFCB05" d="M5.25 2.85c.38-.126.784-.194 1.204-.194 1.837 0 3.37 1.305 3.721 3.04l2.605-.532C12.183 2.218 9.577 0 6.454 0c-.717 0-1.402.116-2.046.332L5.25 2.85z" transform="translate(3 6)"/><g transform="translate(3 7.593)"><mask id="prefix__b" fill="#fff"><use xlink:href="#prefix__a"/></mask><path fill="#00A4E0" d="M2.178 9.695l1.761-1.99c-.785-.697-1.28-1.713-1.28-2.846 0-1.13.495-2.147 1.28-2.842L2.178.025C.843 1.208 0 2.936 0 4.86c0 1.925.843 3.653 2.178 4.836" mask="url(#prefix__b)"/></g><path fill="#EF4123" d="M10.175 7.214c-.352 1.733-1.884 3.036-3.72 3.036-.42 0-.827-.068-1.205-.196l-.842 2.522c.644.214 1.331.33 2.048.33 3.12 0 5.724-2.215 6.324-5.158l-2.605-.534z" transform="translate(3 6)"/><path fill="#000" d="M20.26 8.596c-.002 0-.002.002-.002.002l-.074-.05c-.214.345-.546.626-.966.808-.799.348-1.539.258-2.071-.209l-.05.074V9.22l-.908 1.357c.226.156.467.288.72.394 1.001.416 2.026.396 3.036-.042.73-.317 1.303-.799 1.694-1.41l-1.38-.923zM17.43 5.25c-.845.362-1.28 1.154-1.188 2.081l3.573-1.539c-.615-.721-1.414-.96-2.385-.542zm-2.373 4.13c-.086-.137-.2-.358-.272-.522-.413-.957-.431-1.948-.084-2.899.383-1.043 1.114-1.84 2.06-2.248 1.188-.51 2.501-.411 3.64.264.724.415 1.236 1.056 1.625 1.962.05.117.093.24.137.346L15.057 9.38zM24.646 1.714v7.541l1.173.475-.666 1.555-1.294-.54c-.29-.126-.49-.318-.638-.536-.143-.22-.25-.526-.25-.934v-7.56h1.675zM27.683 7.335c0-.642.285-1.218.733-1.61l-1.203-1.341c-.816.721-1.33 1.775-1.33 2.948-.002 1.175.512 2.23 1.326 2.951l1.202-1.341c-.447-.393-.728-.966-.728-1.607M29.82 9.474c-.236 0-.465-.04-.677-.111l-.575 1.707c.393.132.812.204 1.25.204 1.905.002 3.495-1.35 3.864-3.145l-1.767-.36c-.2.975-1.062 1.707-2.095 1.705" transform="translate(3 6)"/><g transform="translate(31.566 9.375)"><mask id="prefix__d" fill="#fff"><use xlink:href="#prefix__c"/></mask><path fill="#000" d="M1.26.021c-.437 0-.857.071-1.25.2l.57 1.71c.214-.07.442-.11.678-.11 1.034.002 1.897.737 2.093 1.715l1.766-.358C4.755 1.38 3.166.023 1.26.021" mask="url(#prefix__d)"/></g></g></g></svg>