<svg xmlns="http://www.w3.org/2000/svg" xmlns:xlink="http://www.w3.org/1999/xlink" width="46" height="30"><defs><path id="prefix__d" d="M0 0L0.965 0 0.965 24.239 0 24.239z"/><path id="prefix__f" d="M0.002 0L0.956 0 0.956 24.24 0.002 24.24z"/><path id="prefix__h" d="M0.017 0L1.735 0 1.735 24.24 0.017 24.24z"/><path id="prefix__j" d="M0 24.24L36.044 24.24 36.044 0 0 0z"/><filter id="prefix__b" width="125%" height="141.7%" x="-12.5%" y="-16.7%" filterUnits="objectBoundingBox"><feOffset dy="1" in="SourceAlpha" result="shadowOffsetOuter1"/><feGaussianBlur in="shadowOffsetOuter1" result="shadowBlurOuter1" stdDeviation="1.5"/><feColorMatrix in="shadowBlurOuter1" values="0 0 0 0 0 0 0 0 0 0 0 0 0 0 0 0 0 0 0.5 0"/></filter><rect id="prefix__a" width="40" height="24" x="0" y="0" rx="2"/></defs><g fill="none" fill-rule="evenodd" transform="translate(3 2)"><mask id="prefix__c" fill="#fff"><use xlink:href="#prefix__a"/></mask><use fill="#000" filter="url(#prefix__b)" xlink:href="#prefix__a"/><use fill="#FFF" xlink:href="#prefix__a"/><g mask="url(#prefix__c)"><g transform="translate(2)"><g><mask id="prefix__e" fill="#fff"><use xlink:href="#prefix__d"/></mask><path fill="#000" d="M.965 0v24.229c-.014.004-.025.01-.036.01H.012L0 24.236V0h.965z" mask="url(#prefix__e)"/></g><g transform="translate(35.088)"><mask id="prefix__g" fill="#fff"><use xlink:href="#prefix__f"/></mask><path fill="#000" d="M.956 24.236c-.052.001-.104.004-.155.004H.002V0h.954v24.236z" mask="url(#prefix__g)"/></g><g transform="translate(2.472)"><mask id="prefix__i" fill="#fff"><use xlink:href="#prefix__h"/></mask><path fill="#000" d="M1.735 0v24.2c-.046.044-1.634.056-1.718.013V18.164.264L.02 0h1.716z" mask="url(#prefix__i)"/></g><path fill="#000" d="M13.35 0l-.002.155V13.202c-.047.024-1.643.03-1.716.007l-.005-.083v-.088V.165c0-.055.004-.11.006-.165h1.716zM29.834 0c.002.04.005.08.005.12V13.2c-.046.027-1.63.035-1.715.01-.002-.022-.004-.046-.004-.07v-.111V.155c0-.052-.002-.103-.003-.155h1.717zM1.716 0v24.235h-.534V9.689.126L1.18 0h.536zM6.699 0l-.002.155V13.202c-.047.024-.881.029-.953.007l-.005-.083v-.089V.165c0-.055.004-.11.006-.165H6.7zM15.829 0c.002.04.005.08.005.12V13.2c-.046.027-.87.034-.952.01l-.005-.07v-.111V.155L14.875 0h.954zM32.325 0l.002.244V24.216h-.954v-.295V.284L31.371 0h.954zM26.902 0c.002.04.005.08.005.12V13.2c-.046.027-.87.034-.953.01 0-.022-.003-.046-.004-.07v-.111V.155L25.948 0h.954zM19.547 0l.002.133v13.08h-.953v-.16V.154L18.594 0h.953z"/><mask id="prefix__k" fill="#fff"><use xlink:href="#prefix__j"/></mask><path fill="#000" d="M22.003 13.214L22.956 13.214 22.956 0 22.003 0zM10.096 0c.001.04.005.08.005.12V13.2c-.047.026-.869.032-.947.01-.002-.026-.005-.054-.006-.082v-.09V.166c0-.055.004-.11.006-.165h.942zM24.947 0l.002.133v13.08h-.537v-.16V.154c0-.052 0-.103-.002-.155h.537zM14.422 0l-.002.155V13.214h-.53l-.006-.073v-.1V.155L13.886 0h.536zM4.744 13.214L5.28 13.214 5.28 0 4.744 0zM33.243 24.224L33.779 24.224 33.779 0 33.243 0zM20.465 13.214L21.002 13.214 21.002 0 20.465 0zM17.283 0v13.213h-.53c-.001-.025-.004-.05-.004-.074v-.111V.155c0-.052-.002-.103-.003-.155h.537zM10.858 0l-.002.155v13.058h-.523l-.007-.008-.002-.01-.002-.122V0h.536zM30.906 0c.002.04.006.08.006.12V13.2c-.048.026-.454.032-.53.01-.002-.026-.005-.054-.006-.082v-.09V.166c0-.055.004-.11.006-.165h.524zM23.707 0l.002.122V13.2c-.046.025-.458.03-.532.006V7.754v-7.6c0-.052.004-.103.006-.154h.524zM27.652 0c.002.044.006.088.006.131v13.084h-.532V8.9.144L27.128 0h.524zM8.14 0c.001.04.003.081.003.122V13.2c-.046.025-.458.03-.533.006V7.799.154c0-.052.004-.103.006-.154h.525zM21.645 0l-.002.155V13.22c-.138.004-.272 0-.398.001l-.013-.016-.002-.01-.002-.122V0h.417zM34.423 0l-.002.284v23.943c-.139.024-.273.007-.399.011l-.012-.03-.002-.02-.002-.222V0h.417zM17.926 0l-.002.155V13.214c-.137.015-.27.005-.413.008V8.865.144L17.51 0h.417zM8.784 0l.002.122v13.093c-.137.012-.27.006-.413.004V7.732.154c0-.052.004-.103.006-.154h.405zM25.59 0v13.214h-.405l-.005-.086v-.089V.165c0-.055.003-.11.005-.165h.405zM7.338 17.663H8.599c.192 0 .383-.004.574-.026.137-.016.27-.047.395-.107.2-.097.343-.248.407-.464.07-.235.062-.47-.03-.697-.067-.168-.176-.302-.337-.39-.1-.056-.21-.085-.323-.103-.2-.032-.401-.042-.603-.043-.436-.003-.873-.001-1.31 0l-.034.002v1.828zm.001.712v2.084h1.436c.134 0 .268-.005.402-.008.131-.004.26-.027.387-.062.324-.09.544-.293.653-.61.068-.2.076-.406.029-.61-.067-.29-.23-.507-.498-.64-.125-.061-.258-.092-.393-.114-.208-.033-.417-.04-.626-.041-.448-.003-.896-.001-1.344-.001l-.046.002zm2.633-.425c.066.024.127.044.187.068.18.073.346.17.488.305.22.206.366.455.42.75.107.575-.03 1.088-.41 1.533-.125.147-.285.25-.46.33-.201.094-.414.151-.633.185-.204.032-.41.047-.617.048l-1.906.003h-.502c-.01-.037-.011-6.002-.002-6.052H8.866c.276.002.55.027.818.102.265.073.501.198.692.399.22.231.363.504.412.82.07.456-.058.852-.37 1.188-.113.12-.248.214-.393.291l-.053.03zM21.678 18.555v-.025c-.016-.149-.04-.295-.087-.437-.111-.34-.335-.578-.665-.712-.207-.083-.423-.097-.643-.064-.351.052-.621.232-.819.524-.118.176-.18.373-.209.581-.006.043-.009.087-.013.133h2.436zm.789.614h-3.268c.004.053.007.103.013.152.022.193.063.38.14.56.14.32.367.556.695.687.192.077.393.098.599.08.171-.016.332-.063.48-.15.17-.102.294-.244.393-.413.055-.094.1-.193.138-.295l.017-.04.764.1v.022c-.091.329-.243.623-.486.866-.211.212-.464.355-.752.437-.24.069-.485.093-.734.088-.21-.003-.418-.027-.62-.086-.628-.182-1.045-.587-1.264-1.2-.076-.214-.115-.436-.133-.661-.018-.214-.017-.427.002-.64.026-.302.086-.596.218-.87.277-.58.728-.946 1.362-1.072.37-.074.74-.06 1.101.054.27.084.503.229.706.424.287.277.458.617.549 1.002.053.226.078.455.08.687v.268zM15.17 18.963l-.001-.15c-.007-.204-.037-.405-.099-.6-.091-.289-.255-.528-.507-.698-.35-.234-.73-.266-1.12-.127-.326.116-.551.35-.69.664-.104.234-.145.482-.158.735-.01.192-.008.383.016.574.023.182.062.36.133.53.22.52.744.86 1.392.738.262-.05.475-.182.653-.378.15-.165.241-.361.3-.575.063-.233.083-.472.08-.713m.768-.07c-.006.347-.027.638-.097.923-.084.343-.246.642-.5.889-.193.186-.418.321-.667.417-.271.104-.553.148-.844.141-.24-.005-.476-.037-.702-.119-.524-.188-.894-.54-1.108-1.054-.084-.201-.133-.412-.162-.627-.025-.188-.032-.376-.029-.565.006-.31.044-.616.145-.912.196-.576.586-.96 1.152-1.17.204-.077.417-.111.635-.121.33-.016.654.022.96.151.518.22.872.597 1.066 1.124.075.205.117.417.134.634.01.114.014.23.017.289M28.794 18.924c.002-.1-.008-.241-.028-.382-.025-.174-.067-.344-.143-.504-.14-.299-.359-.519-.667-.645-.183-.075-.375-.095-.572-.077-.16.014-.314.054-.455.13-.274.15-.466.371-.579.661-.098.252-.13.516-.139.784-.004.164.003.327.024.49.022.171.06.339.126.5.21.511.72.865 1.376.752.272-.046.495-.183.678-.386.143-.16.231-.347.289-.551.067-.239.089-.483.09-.772m-3.346.123c0-.351.026-.628.097-.899.08-.305.212-.584.426-.82.252-.275.56-.46.92-.558.253-.07.51-.09.77-.074.25.015.492.063.72.167.521.236.869.63 1.048 1.173.066.2.102.405.117.614.018.243.013.486-.011.729-.027.265-.077.525-.186.77-.172.382-.447.668-.816.864-.27.144-.559.225-.865.245-.315.02-.624-.008-.923-.115-.545-.196-.92-.568-1.127-1.109-.075-.196-.12-.4-.144-.609-.018-.15-.027-.3-.026-.378M24.252 15.255v1.527c.065.003.126.001.187.002h.554v.576c-.048.002-.096 0-.144.001h-.594l-.002.047v2.575c0 .09.007.183.019.273.018.14.11.235.248.264.068.015.138.02.207.013.084-.007.167-.016.25-.025h.019l.101.658c-.09.015-.175.03-.261.043-.139.02-.279.025-.42.018-.147-.007-.293-.027-.43-.087-.174-.078-.31-.196-.389-.374-.033-.077-.047-.158-.058-.24-.02-.152-.03-.305-.03-.458l-.002-2.579v-.128h-.546v-.577h.546v-.056l-.001-.978c0-.037.011-.058.043-.077.22-.13.438-.261.656-.392l.047-.026M16.79 15.123h.734c.009.031.011 5.994.002 6.046h-.737v-6.046z" mask="url(#prefix__k)"/></g></g></g></svg>